<svg width="120" height="26" viewBox="0 0 120 26" fill="none" xmlns="http://www.w3.org/2000/svg">
<path d="M26.625 11.4219L23.4361 11.5071C23.4029 11.2798 23.313 11.0786 23.1662 10.9034C23.0194 10.7235 22.8277 10.5838 22.5909 10.4844C22.3589 10.3802 22.089 10.3281 21.7812 10.3281C21.3788 10.3281 21.0355 10.4086 20.7514 10.5696C20.4721 10.7306 20.3348 10.9484 20.3395 11.223C20.3348 11.4361 20.42 11.6207 20.5952 11.777C20.7751 11.9332 21.0947 12.0587 21.554 12.1534L23.6562 12.5511C24.7453 12.7595 25.5549 13.1051 26.0852 13.5881C26.6203 14.071 26.8902 14.7102 26.8949 15.5057C26.8902 16.2538 26.6676 16.9048 26.2273 17.4588C25.7917 18.0128 25.1951 18.4437 24.4375 18.7514C23.6799 19.0545 22.8134 19.206 21.8381 19.206C20.2803 19.206 19.0516 18.8864 18.152 18.2472C17.2571 17.6032 16.7457 16.7415 16.6179 15.6619L20.0483 15.5767C20.1241 15.9744 20.3205 16.2775 20.6378 16.4858C20.955 16.6941 21.3598 16.7983 21.8523 16.7983C22.2973 16.7983 22.6596 16.7154 22.9389 16.5497C23.2183 16.384 23.3603 16.1638 23.3651 15.8892C23.3603 15.643 23.2514 15.4465 23.0384 15.2997C22.8253 15.1482 22.4915 15.0298 22.0369 14.9446L20.1335 14.5824C19.0398 14.3835 18.2254 14.0166 17.6903 13.4815C17.1553 12.9418 16.8902 12.2552 16.8949 11.4219C16.8902 10.6927 17.0843 10.0701 17.4773 9.55398C17.8703 9.03314 18.429 8.63542 19.1534 8.3608C19.8778 8.08617 20.7325 7.94886 21.7173 7.94886C23.1946 7.94886 24.3594 8.259 25.2116 8.87926C26.0639 9.49479 26.535 10.3423 26.625 11.4219ZM35.6431 14.2912V8.09091H39.109V19H35.7994V16.9688H35.6857C35.4442 17.6364 35.0323 18.1667 34.4499 18.5597C33.8723 18.9479 33.1739 19.142 32.3548 19.142C31.6114 19.142 30.958 18.9716 30.3945 18.6307C29.8311 18.2898 29.3931 17.8139 29.0806 17.2031C28.7681 16.5876 28.6095 15.8679 28.6048 15.044V8.09091H32.0778V14.3622C32.0825 14.9541 32.2388 15.4205 32.5465 15.7614C32.8543 16.1023 33.2733 16.2727 33.8036 16.2727C34.1493 16.2727 34.4594 16.197 34.734 16.0455C35.0134 15.8892 35.2335 15.6643 35.3945 15.3707C35.5603 15.0724 35.6431 14.7126 35.6431 14.2912ZM41.3196 19V8.09091H44.6932V10.0795H44.8068C45.0057 9.35985 45.33 8.82481 45.7798 8.47443C46.2296 8.11932 46.7528 7.94176 47.3494 7.94176C47.5104 7.94176 47.6761 7.9536 47.8466 7.97727C48.017 7.99621 48.1757 8.02699 48.3224 8.0696V11.0881C48.1567 11.0312 47.9389 10.9863 47.669 10.9531C47.4039 10.92 47.1671 10.9034 46.9588 10.9034C46.5469 10.9034 46.1752 10.9957 45.8438 11.1804C45.517 11.3603 45.259 11.6136 45.0696 11.9403C44.8849 12.2623 44.7926 12.6411 44.7926 13.0767V19H41.3196ZM56.4457 8.09091V10.6477H49.4286V8.09091H56.4457ZM50.8917 19V7.53693C50.8917 6.69413 51.0503 5.99574 51.3675 5.44176C51.6848 4.88305 52.1251 4.46638 52.6886 4.19176C53.252 3.9124 53.9031 3.77273 54.6417 3.77273C55.1246 3.77273 55.5792 3.81061 56.0053 3.88636C56.4362 3.95739 56.7558 4.02131 56.9641 4.07812L56.4102 6.62074C56.2823 6.57812 56.1261 6.54261 55.9414 6.5142C55.7615 6.48579 55.591 6.47159 55.43 6.47159C55.0228 6.47159 54.7435 6.56155 54.592 6.74148C54.4405 6.9214 54.3647 7.16761 54.3647 7.48011V19H50.8917ZM58.1165 19V8.09091H61.4901V10.0795H61.6037C61.8026 9.35985 62.1269 8.82481 62.5767 8.47443C63.0265 8.11932 63.5497 7.94176 64.1463 7.94176C64.3073 7.94176 64.473 7.9536 64.6435 7.97727C64.8139 7.99621 64.9725 8.02699 65.1193 8.0696V11.0881C64.9536 11.0312 64.7358 10.9863 64.4659 10.9531C64.2008 10.92 63.964 10.9034 63.7557 10.9034C63.3438 10.9034 62.9721 10.9957 62.6406 11.1804C62.3139 11.3603 62.0559 11.6136 61.8665 11.9403C61.6818 12.2623 61.5895 12.6411 61.5895 13.0767V19H58.1165Z" fill="white"/>
<circle cx="3" cy="13" r="3" fill="#0063DC"/>
<circle cx="10" cy="13" r="3" fill="#77CCAA"/>
</svg>
